<svg width="42" height="43" viewBox="0 0 42 43" fill="none" xmlns="http://www.w3.org/2000/svg">
<path d="M20.9999 42.626C32.5636 42.626 41.9379 33.2517 41.9379 21.688C41.9379 10.1243 32.5636 0.75 20.9999 0.75C9.43616 0.75 0.0618896 10.1243 0.0618896 21.688C0.0618896 33.2517 9.43616 42.626 20.9999 42.626Z" fill="#FAFAFA"/>
<path fill-rule="evenodd" clip-rule="evenodd" d="M25.2117 13.4133L25.3176 13.4176L25.4214 13.4242L25.5252 13.4329L25.6289 13.4449L25.7305 13.4591L25.8321 13.4755L25.9326 13.4952L26.0331 13.517L26.1314 13.5411L26.2297 13.5673L26.3269 13.5968L26.4219 13.6273L26.517 13.6612L26.6109 13.6972L26.7037 13.7344L26.7955 13.7748L26.8851 13.8174L26.9746 13.8611L27.062 13.9081L27.1494 13.9561L27.2346 14.0064L27.3187 14.0588L27.4006 14.1134L27.4825 14.1702L27.5623 14.2281L27.6409 14.2882L27.7174 14.3505L27.7928 14.4138L27.8659 14.4793L27.938 14.546L28.009 14.6148L28.0778 14.6858L28.1445 14.7579L28.21 14.8311L28.2745 14.9064L28.3356 14.984L28.3957 15.0615L28.4536 15.1413L28.5104 15.2232L28.565 15.3051L28.6174 15.3892L28.6677 15.4744L28.7157 15.5618L28.7627 15.6492L28.8064 15.7388L28.849 15.8283L28.8894 15.9201L28.9276 16.0129L28.9626 16.1069L28.9965 16.2019L29.027 16.298L29.0565 16.3941L29.0827 16.4924L29.1068 16.5907L29.1286 16.6912L29.1483 16.7917L29.1647 16.8933L29.1789 16.9949L29.1909 17.0986L29.1996 17.2024L29.2073 17.3073L29.2105 17.4121L29.2116 17.5181V25.7299L29.2105 25.8359L29.2073 25.9418L29.1996 26.0456L29.1909 26.1504L29.1789 26.2531L29.1647 26.3558L29.1483 26.4563L29.1286 26.5579L29.1068 26.6573L29.0827 26.7556L29.0565 26.8539L29.027 26.9511L28.9965 27.0472L28.9626 27.1412L28.9276 27.2351L28.8894 27.3279L28.849 27.4197L28.8064 27.5104L28.7627 27.5988L28.7157 27.6873L28.6677 27.7736L28.6174 27.8588L28.565 27.9429L28.5104 28.0259L28.4536 28.1068L28.3957 28.1865L28.3356 28.2651L28.2745 28.3416L28.21 28.417L28.1445 28.4901L28.0778 28.5622L28.009 28.6332L27.938 28.702L27.8659 28.7698L27.7928 28.8342L27.7174 28.8987L27.6409 28.9598L27.5623 29.0199L27.4825 29.0789L27.4006 29.1346L27.3187 29.1892L27.2346 29.2416L27.1494 29.2919L27.062 29.341L26.9746 29.3869L26.8851 29.4317L26.7955 29.4732L26.7037 29.5136L26.6109 29.5518L26.517 29.5868L26.4219 29.6207L26.3269 29.6513L26.2297 29.6808L26.1314 29.707L26.0331 29.731L25.9326 29.7528L25.8321 29.7725L25.7305 29.7889L25.6289 29.8031L25.5252 29.8151L25.4214 29.8249L25.3176 29.8315L25.2117 29.8348L25.1057 29.8369H16.8939L16.7879 29.8348L16.682 29.8315L16.5782 29.8249L16.4744 29.8151L16.3707 29.8031L16.2691 29.7889L16.1675 29.7725L16.067 29.7528L15.9665 29.731L15.8682 29.707L15.7699 29.6808L15.6727 29.6513L15.5777 29.6207L15.4826 29.5868L15.3887 29.5518L15.2959 29.5136L15.2041 29.4732L15.1145 29.4317L15.025 29.3869L14.9376 29.341L14.8502 29.2919L14.765 29.2416L14.6809 29.1892L14.599 29.1346L14.5171 29.0789L14.4373 29.0199L14.3587 28.9598L14.2822 28.8987L14.2068 28.8342L14.1337 28.7698L14.0616 28.702L13.9906 28.6332L13.9218 28.5622L13.8551 28.4901L13.7896 28.417L13.7252 28.3416L13.664 28.2651L13.6039 28.1865L13.5449 28.1068L13.4892 28.0259L13.4346 27.9429L13.3822 27.8588L13.3319 27.7736L13.2839 27.6873L13.2369 27.5988L13.1921 27.5104L13.1506 27.4197L13.1102 27.3279L13.072 27.2351L13.037 27.1412L13.0031 27.0472L12.9726 26.9511L12.9431 26.8539L12.9168 26.7556L12.8928 26.6573L12.871 26.5579L12.8513 26.4563L12.8349 26.3558L12.8207 26.2531L12.8087 26.1504L12.8 26.0456L12.7923 25.9418L12.7891 25.8359L12.788 25.7299V17.5181L12.7891 17.4121L12.7923 17.3073L12.8 17.2024L12.8087 17.0986L12.8207 16.9949L12.8349 16.8933L12.8513 16.7917L12.871 16.6912L12.8928 16.5907L12.9168 16.4924L12.9431 16.3941L12.9726 16.298L13.0031 16.2019L13.037 16.1069L13.072 16.0129L13.1102 15.9201L13.1506 15.8283L13.1921 15.7388L13.2369 15.6492L13.2839 15.5618L13.3319 15.4744L13.3822 15.3892L13.4346 15.3051L13.4892 15.2232L13.5449 15.1413L13.6039 15.0615L13.664 14.984L13.7252 14.9064L13.7896 14.8311L13.8551 14.7579L13.9218 14.6858L13.9906 14.6148L14.0616 14.546L14.1337 14.4793L14.2068 14.4138L14.2822 14.3505L14.3587 14.2882L14.4373 14.2281L14.5171 14.1702L14.599 14.1134L14.6809 14.0588L14.765 14.0064L14.8502 13.9561L14.9376 13.9081L15.025 13.8611L15.1145 13.8174L15.2041 13.7748L15.2959 13.7344L15.3887 13.6972L15.4826 13.6612L15.5777 13.6273L15.6727 13.5968L15.7699 13.5673L15.8682 13.5411L15.9665 13.517L16.067 13.4952L16.1675 13.4755L16.2691 13.4591L16.3707 13.4449L16.4744 13.4329L16.5782 13.4242L16.682 13.4176L16.7879 13.4133L16.8939 13.4122H25.1057L25.2117 13.4133ZM16.9059 15.3007L16.836 15.3018L16.7781 15.304L16.7213 15.3073L16.6656 15.3127L16.6099 15.3193L16.5542 15.3269L16.4996 15.3357L16.446 15.3455L16.3925 15.3575L16.339 15.3706L16.2866 15.3848L16.2352 15.4001L16.1828 15.4165L16.1326 15.4351L16.0823 15.4536L16.0321 15.4744L15.9829 15.4962L15.9348 15.5181L15.8868 15.5421L15.8387 15.5672L15.7929 15.5935L15.747 15.6208L15.7011 15.6492L15.6563 15.6787L15.6126 15.7093L15.5689 15.7409L15.5263 15.7737L15.4848 15.8065L15.4444 15.8414L15.404 15.8775L15.3647 15.9135L15.3264 15.9507L15.2893 15.9889L15.2522 16.0282L15.2172 16.0686L15.1823 16.109L15.1484 16.1505L15.1167 16.1931L15.085 16.2368L15.0545 16.2805L15.025 16.3253L14.9966 16.3712L14.9693 16.4171L14.9431 16.464L14.9179 16.511L14.8939 16.5591L14.8721 16.6071L14.8502 16.6563L14.8294 16.7065L14.8109 16.7568L14.7923 16.8081L14.7759 16.8594L14.7606 16.9108L14.7464 16.9632L14.7333 17.0167L14.7213 17.0702L14.7115 17.1238L14.7017 17.1784L14.694 17.2341L14.6885 17.2898L14.6831 17.3455L14.6798 17.4023L14.6776 17.4602L14.6765 17.5301V25.7179L14.6776 25.7889L14.6798 25.8457L14.6831 25.9025L14.6885 25.9593L14.694 26.015L14.7017 26.0696L14.7115 26.1242L14.7213 26.1788L14.7333 26.2324L14.7464 26.2848L14.7606 26.3372L14.7759 26.3897L14.7923 26.441L14.8109 26.4913L14.8294 26.5415L14.8502 26.5918L14.8721 26.6409L14.8939 26.689L14.9179 26.737L14.9431 26.7851L14.9693 26.8321L14.9966 26.8779L15.025 26.9227L15.0545 26.9675L15.085 27.0112L15.1167 27.0549L15.1484 27.0975L15.1823 27.139L15.2172 27.1805L15.2522 27.2198L15.2893 27.2591L15.3264 27.2974L15.3647 27.3345L15.404 27.3716L15.4444 27.4066L15.4848 27.4415L15.5263 27.4754L15.5689 27.5071L15.6126 27.5398L15.6563 27.5704L15.7011 27.5988L15.7459 27.6272L15.7929 27.6545L15.8387 27.6807L15.8868 27.7059L15.9348 27.7299L15.9829 27.7528L16.0321 27.7736L16.0823 27.7943L16.1326 27.814L16.1828 27.8315L16.2341 27.8479L16.2866 27.8632L16.339 27.8774L16.3925 27.8905L16.446 27.9025L16.4996 27.9123L16.5542 27.9221L16.6099 27.9298L16.6656 27.9363L16.7213 27.9407L16.7781 27.944L16.836 27.9462L16.9059 27.9473H25.0937L25.1636 27.9462L25.2215 27.944L25.2783 27.9407L25.334 27.9363L25.3897 27.9298L25.4454 27.9221L25.5 27.9123L25.5536 27.9025L25.6071 27.8905L25.6606 27.8774L25.713 27.8632L25.7655 27.8479L25.8168 27.8315L25.867 27.814L25.9173 27.7943L25.9675 27.7736L26.0167 27.7528L26.0647 27.7299L26.1128 27.7059L26.1609 27.6807L26.2067 27.6545L26.2537 27.6272L26.2985 27.5988L26.3433 27.5693L26.387 27.5398L26.4307 27.5071L26.4733 27.4754L26.5148 27.4415L26.5552 27.4077L26.5956 27.3716L26.6349 27.3345L26.6732 27.2974L26.7103 27.2591L26.7474 27.2198L26.7824 27.1805L26.8173 27.139L26.8512 27.0975L26.8829 27.0549L26.9145 27.0123L26.9451 26.9675L26.9746 26.9227L27.003 26.8779L27.0303 26.8321L27.0565 26.7851L27.0817 26.737L27.1057 26.689L27.1275 26.6409L27.1494 26.5918L27.1701 26.5415L27.1887 26.4913L27.2073 26.441L27.2237 26.3897L27.239 26.3372L27.2532 26.2848L27.2663 26.2324L27.2783 26.1788L27.2881 26.1242L27.2979 26.0696L27.3056 26.015L27.311 25.9593L27.3165 25.9025L27.3198 25.8457L27.322 25.7878L27.3231 25.7179V17.5301L27.322 17.4602L27.3198 17.4023L27.3165 17.3455L27.311 17.2898L27.3056 17.2341L27.2979 17.1784L27.2881 17.1238L27.2783 17.0702L27.2663 17.0167L27.2532 16.9632L27.239 16.9108L27.2237 16.8594L27.2073 16.8081L27.1887 16.7568L27.1701 16.7065L27.1494 16.6563L27.1275 16.6071L27.1057 16.5591L27.0817 16.511L27.0565 16.464L27.0303 16.4171L27.003 16.3712L26.9746 16.3253L26.9451 16.2805L26.9145 16.2368L26.8829 16.1931L26.8512 16.1505L26.8173 16.109L26.7824 16.0686L26.7474 16.0282L26.7103 15.9889L26.6732 15.9507L26.6349 15.9135L26.5956 15.8775L26.5552 15.8414L26.5148 15.8065L26.4733 15.7737L26.4307 15.7409L26.387 15.7093L26.3433 15.6787L26.2985 15.6492L26.2526 15.6208L26.2067 15.5935L26.1609 15.5672L26.1128 15.5421L26.0647 15.5181L26.0167 15.4962L25.9675 15.4744L25.9173 15.4536L25.867 15.4351L25.8168 15.4165L25.7644 15.4001L25.713 15.3848L25.6606 15.3706L25.6071 15.3575L25.5536 15.3455L25.5 15.3357L25.4454 15.3269L25.3897 15.3193L25.334 15.3127L25.2783 15.3073L25.2215 15.304L25.1636 15.3018L25.0937 15.3007H16.9059Z" fill="#BABABA"/>
</svg>
